<svg xmlns="http://www.w3.org/2000/svg" viewBox="0 0 512 512">
  <defs>
    <linearGradient id="grad" x1="0%" y1="0%" x2="100%" y2="100%">
      <stop offset="0%" style="stop-color:#6366f1"/>
      <stop offset="100%" style="stop-color:#8b5cf6"/>
    </linearGradient>
  </defs>
  <rect width="512" height="512" rx="64" fill="url(#grad)"/>
  <g fill="#ffffff">
    <circle cx="256" cy="200" r="40"/>
    <path d="M256 260c-60 0-100 30-100 60v40h200v-40c0-30-40-60-100-60z"/>
    <path d="M170 380c0 10 8 18 18 18h136c10 0 18-8 18-18v-20H170v20z"/>
    <rect x="230" y="100" width="52" height="20" rx="4"/>
    <rect x="218" y="90" width="8" height="40" rx="2"/>
    <rect x="286" y="90" width="8" height="40" rx="2"/>
  </g>
</svg>
